<?xml version="1.0" encoding="iso-8859-1"?>
<!-- Generator: Adobe Illustrator 16.0.0, SVG Export Plug-In . SVG Version: 6.00 Build 0)  -->
<!DOCTYPE svg PUBLIC "-//W3C//DTD SVG 1.1//EN" "http://www.w3.org/Graphics/SVG/1.1/DTD/svg11.dtd">
<svg version="1.1" id="Capa_1" xmlns="http://www.w3.org/2000/svg" xmlns:xlink="http://www.w3.org/1999/xlink" x="0px" y="0px"
	 width="973px" height="973px" viewBox="0 0 973 973" style="enable-background:new 0 0 973 973;" xml:space="preserve">
<g>
	<path d="M125.057,406.5c-2.2,10.1,0.1,20.6,6.4,28.8l88.7,116c6.9,9,17.3,13.699,27.8,13.699c0.4,0,0.8,0,1.2,0l-59.9,170
		c-3.4,9.801,3.8,20,14.1,20h68.6v171c0,26,21.1,47,47,47c26,0,47-21.1,47-47V755h22.9v171c0,26,21.1,47,47,47c26,0,47-21.1,47-47
		V755h68.6c10.301,0,17.601-10.199,14.101-20l-82.8-235v-43.4l39.199,49.5c6.601,8.4,16.7,13.301,27.4,13.301h76.8v-70h-59.899
		l-98.101-123.9c-18.3-31.1-52.2-52-90.899-52c-20.101,0-39,7.1-57,16.5l-177.5,93C133.857,387.8,127.357,396.4,125.057,406.5z
		 M281.957,392.9v105.6l-0.9,2.699l-58.8-76.899L281.957,392.9z"/>
	<path d="M848.757,955.699V943.5c0-6.6-5.4-12-12-12h-64.101v-72.699h-96.3V931.5h-64.1c-6.601,0-12,5.4-12,12v12.199
		c0,6.602,5.399,12,12,12h224.6C843.357,967.699,848.757,962.4,848.757,955.699z"/>
	<path d="M734.457,123.2V3.8c0-2.8-3.5-4.1-5.3-2l-14,16.3c-0.5,0.5-0.7,1.2-0.7,2v103.1v16v10h-10.1c-6,0-11,4.4-11.9,10.3
		l-19.5,133.1h-14.6c-6.6,0-12,5.4-12,12v144.8v70v283.299h-34.1c-6.601,0-12,5.4-12,12V826.9c0,6.6,5.399,12,12,12h64.1h96.3
		h64.101c6.6,0,12-5.4,12-12v-12.201c0-6.6-5.4-12-12-12h-34.101V679.801h-30h-38.899c-5.5,0-10-4.5-10-10s4.5-10,10-10h38.899h30
		V620.5h-30h-38.899c-5.5,0-10-4.5-10-10s4.5-10,10-10h38.899h30v-39.301h-30h-38.899c-5.5,0-10-4.5-10-10s4.5-10,10-10h38.899h30
		V304.6c0-6.6-5.399-12-12-12h-14.6l-19.5-133.1c-0.9-5.9-5.9-10.3-11.9-10.3h-10.1v-10v-16H734.457z"/>
	<path d="M472.957,188c0-26,4.7-90.2-32.1-123.7l21.4-27c3.8-4.7,2.5-11.7-2.7-14.8C445.357,14,416.057,0,377.457,0
		c-38.6,0-67.899,14-82.1,22.5c-5.2,3.1-6.4,10.1-2.7,14.8l21.4,27c-36.8,33.6-32.1,97.7-32.1,123.7c0,36-32,48-32,48
		c11,55,88,16,88,16c-12.5-7.3-18.899-21.8-22-36.4c13.101,21.7,35.801,36,61.5,36c25.7,0,48.4-14.3,61.5-36
		c-3.1,14.7-9.5,29.1-22,36.4c0,0,77,39,88-16C504.957,236,472.957,224,472.957,188z"/>
</g>
<g>
</g>
<g>
</g>
<g>
</g>
<g>
</g>
<g>
</g>
<g>
</g>
<g>
</g>
<g>
</g>
<g>
</g>
<g>
</g>
<g>
</g>
<g>
</g>
<g>
</g>
<g>
</g>
<g>
</g>
</svg>
