<?xml version="1.0" encoding="iso-8859-1"?>
<!-- Generator: Adobe Illustrator 16.0.0, SVG Export Plug-In . SVG Version: 6.00 Build 0)  -->
<!DOCTYPE svg PUBLIC "-//W3C//DTD SVG 1.1//EN" "http://www.w3.org/Graphics/SVG/1.1/DTD/svg11.dtd">
<svg version="1.1" id="Capa_1" xmlns="http://www.w3.org/2000/svg" xmlns:xlink="http://www.w3.org/1999/xlink" x="0px" y="0px"
	 width="987.9px" height="987.9px" viewBox="0 0 987.9 987.9" style="enable-background:new 0 0 987.9 987.9;" xml:space="preserve"
	>
<g>
	<g>
		<path d="M636.15,601c-14.101,9.8-29.101,18.1-45,24.8c-12.9,5.5-26.2,9.8-39.8,13L494.75,750l-57.8-111.1
			c-13.6-3.2-27-7.5-40.1-13.101c-15.9-6.7-31-15-45-24.8c-103.601,64.8-177.101,198.2-186,355.1c-1,17.301,12.7,31.801,29.9,31.801
			h596.4c17.3,0,30.899-14.601,29.899-31.801C813.25,799.3,739.75,665.8,636.15,601z"/>
		<path d="M612.55,491.9c-22.6-23.7-47.199-56.301-73.199-96.801c-7.2-11.2-14.101-22.399-20.601-33.3
			c-11.6-19.4-39.6-19.5-51.3-0.3c-6.7,11-13.9,22.4-21.3,33.8c-26.3,40.4-50.9,72.9-73.2,96.5c-14.4,15.3-27.7,26.9-40.7,35.4
			c-1.8,1.2-3.6,2.3-5.399,3.3c16.699,20.7,37.199,38.2,60.399,51.6c31.4,18,67.8,28.4,106.7,28.4s75.3-10.3,106.7-28.4
			c23-13.199,43.3-30.5,59.899-51C645.15,522.4,629.25,509.4,612.55,491.9z"/>
		<path d="M697.05,508.4c3.101,0.699,6.101,1,9.101,1c0,0,66.3-160.601-32.5-272.3l-2.3,3.3l-2.301,3.3l-10.199,15l-10,14.6
			l-29.7-26.6c-0.101-0.1-12.9-11.2-34.2-22.3c-20.3-10.6-52.5-23.3-90.2-23.3c-29.6,0-59.399,7.5-88.399,22.3
			c-21.7,11.1-35.101,22.4-36.101,23.3l-29.399,26.8l-10.9-15.8l-10.2-14.9l-1.6-2.4l-2.9-4.3c-100.1,111.7-33.4,273.2-33.4,273.2
			c2.9,0,6-0.399,9.1-1.1c5.3-1.3,10.7-3.601,16.4-6.7c54.1-30.6,123-143,160.1-209.1c11.6-20.6,41.2-20.4,52.5,0.4
			c36.2,66.6,104,179.8,160.6,209.4C686.05,505.1,691.65,507.2,697.05,508.4z"/>
		<path d="M330.95,197.3l4.2,6.2l5.7,8.3l4.3,6.2l1.8,2.7c0,0,17-15.2,45.9-29.6c13.1-6.5,28.6-12.8,46.1-17.5
			c16.9-4.5,35.6-7.4,55.7-7.4c20.1,0,38.8,2.9,55.7,7.4c17.5,4.7,33,11,46.1,17.5c28.8,14.3,45.9,29.6,45.9,29.6l1.3-1.9l4.3-6.2
			l5.7-8.3l4.2-6.2l9.899-14.5l42.7-62.4c8.5-12.4,6.5-29.2-4.7-39.2c-32.2-29.2-105.399-82-211-82
			c-105.7,0-178.899,52.8-211.2,81.9c-11.2,10.1-13.2,26.8-4.7,39.2l42.2,61.7L330.95,197.3z M445.95,83.4c0-6.6,5.4-12,12-12h20.4
			V50.9c0-6.6,5.399-12,12-12h7.1c6.6,0,12,5.4,12,12v20.4h20.5c6.6,0,12,5.4,12,12v7.1c0,6.6-5.4,12-12,12h-20.4v20.7
			c0,6.6-5.399,12-12,12h-7.1c-6.6,0-12-5.4-12-12v-20.7h-20.5c-6.6,0-12-5.4-12-12V83.4z"/>
	</g>
</g>
<g>
</g>
<g>
</g>
<g>
</g>
<g>
</g>
<g>
</g>
<g>
</g>
<g>
</g>
<g>
</g>
<g>
</g>
<g>
</g>
<g>
</g>
<g>
</g>
<g>
</g>
<g>
</g>
<g>
</g>
</svg>
