<svg height="463pt" viewBox="0 -27 463.552 463" width="463pt" xmlns="http://www.w3.org/2000/svg"><path d="m224 96.277344h8.296875c-3.199219 11.292968-5.625 22.269531-7.242187 32.277344-38.566407 2.832031-72.230469 29.035156-84.277344 65.96875 2.007812 4.183593 3.222656 8.808593 3.222656 13.753906 0 2.824218-.480469 5.511718-1.175781 8.117187.398437-.015625.777343-.117187 1.175781-.117187 17.648438 0 32 14.351562 32 32 0 .398437-.105469.773437-.121094 1.175781 2.609375-.695313 5.296875-1.175781 8.121094-1.175781 17.648438 0 32 14.351562 32 32 0 5.855468-1.695312 11.269531-4.449219 16h89.304688c-22.597657-11.808594-34.289063-25.992188-35.101563-27l-3.257812-4.089844 49.257812-94.039062c-16.152344-24.273438-41.769531-39.570313-70.523437-42.304688 5.90625-34.566406 21.640625-80.289062 44.839843-107.367188l-12.140624-10.402343c-11.859376 13.824219-21.890626 32-29.859376 51.203125-11.109374-35.875-44.597656-62-84.070312-62h-24v8c0 48.519531 39.480469 88 88 88zm24.863281 52.375 14.289063 7.199218c-.410156.839844-10.449219 20.425782-31.152344 20.425782s-30.742188-19.585938-31.160156-20.425782l14.289062-7.199218c.0625.121094 6.136719 11.625 16.871094 11.625s16.808594-11.503906 16.863281-11.625zm0 0"/><path d="m152 296.277344c0 8.835937-7.164062 16-16 16s-16-7.164063-16-16c0-8.839844 7.164062-16 16-16s16 7.160156 16 16zm0 0"/><path d="m160 248.277344c0 8.835937-7.164062 16-16 16s-16-7.164063-16-16c0-8.839844 7.164062-16 16-16s16 7.160156 16 16zm0 0"/><path d="m128 208.277344c0 8.835937-7.164062 16-16 16s-16-7.164063-16-16c0-8.839844 7.164062-16 16-16s16 7.160156 16 16zm0 0"/><path d="m368 264.277344c32.632812 0 56.265625-15.769532 71.160156-30.191406l-66.535156-127.011719c-1.816406-3.453125-7.441406-3.453125-9.25 0l-66.535156 127.019531c14.894531 14.414062 38.527344 30.183594 71.160156 30.183594zm32-48h16v16h-16zm-40-56h16v16h-16zm-24 56v16h-16v-16zm0 0"/><path d="m200 280.277344c0 8.835937-7.164062 16-16 16s-16-7.164063-16-16c0-8.839844 7.164062-16 16-16s16 7.160156 16 16zm0 0"/><path d="m289.105469 248.851562-7.425781 14.167969c9.417968 9.441407 37.929687 33.257813 86.320312 33.257813 48.039062 0 76.839844-23.90625 86.296875-33.289063l-7.410156-14.136719c-17.230469 15.59375-43.472657 31.425782-78.886719 31.425782s-61.65625-15.832032-78.894531-31.425782zm0 0"/><path d="m64 272.277344c0 8.835937-7.164062 16-16 16s-16-7.164063-16-16c0-8.839844 7.164062-16 16-16s16 7.160156 16 16zm0 0"/><path d="m72 392.277344h320v16h-320zm0 0"/><path d="m112 256.277344c0 8.835937-7.164062 16-16 16s-16-7.164063-16-16c0-8.839844 7.164062-16 16-16s16 7.160156 16 16zm0 0"/><path d="m32 232.277344c0 8.835937-7.164062 16-16 16s-16-7.164063-16-16c0-8.839844 7.164062-16 16-16s16 7.160156 16 16zm0 0"/><path d="m24 128.277344h-24c1.800781 20.191406 17.742188 65.3125 32 80-5.207031-17.433594-7.335938-61.730469-8-80zm0 0"/><path d="m104 304.277344c0 8.835937-7.164062 16-16 16s-16-7.164063-16-16c0-8.839844 7.164062-16 16-16s16 7.160156 16 16zm0 0"/><path d="m64 232.277344c8.824219 0 16-7.175782 16-16 0-5.785156-3.121094-10.816406-7.726562-13.625.621093-11.839844 3.070312-23.480469 7.46875-34.441406 4.273437 5.074218 10.578124 8.066406 17.425781 8.066406 12.59375 0 22.832031-10.242188 22.832031-22.832032v-2.328124c0-12.601563-10.238281-22.839844-23.601562-22.839844-6 0-11.726563 2.40625-15.941407 6.496094-5.554687-13.175782-8.457031-27.480469-8.457031-41.769532v-12.726562h-16v12.726562c0 19.070313 4.503906 38.167969 13.039062 55.238282l1.207032 2.425781c-8.429688 16-13.207032 33.664062-14.070313 51.734375-4.855469 2.753906-8.175781 7.90625-8.175781 13.875 0 8.824218 7.175781 16 16 16zm26.535156-84.679688c1.234375-2.050781 3.480469-3.320312 6.632813-3.320312 3.761719 0 6.832031 3.070312 6.832031 6.832031v2.328125c0 3.765625-3.070312 6.839844-6.832031 6.839844-2.601563 0-4.945313-1.449219-6.113281-3.785156l-2.664063-5.320313zm0 0"/><path d="m163.550781 312.277344c-5.550781 9.519531-15.757812 16-27.550781 16-7.886719 0-15.015625-2.976563-20.601562-7.722656-5.589844 9.371093-15.71875 15.722656-27.398438 15.722656-14.871094 0-27.289062-10.234375-30.863281-24h-56.6875c3.992187 35.949218 34.550781 64 71.550781 64h320c37 0 67.558594-28.050782 71.550781-64zm0 0"/></svg>